  <svg width="50" height="50" viewBox="125 125" fill="none" xmlns="http://www.w3.org/2000/svg">

<path d="M115.993 39.514L114.617 29.1945H114.655C115.059 29.1945 115.387 28.867 115.387 28.463V13.5875C115.387 13.3305 115.253 13.0933 115.033 12.9609C114.813 12.8285 114.541 12.8206 114.314 12.9403C111.461 14.4455 109.676 17.4052 109.676 20.6316V26.9038C109.676 28.1687 110.701 29.1945 111.967 29.1945H112.14L110.764 39.5139C110.664 40.267 110.894 41.0281 111.394 41.5997C111.895 42.1715 112.619 42.4999 113.379 42.4999C114.139 42.4999 114.862 42.1715 115.363 41.5997C115.864 41.0281 116.093 40.2671 115.993 39.514Z" fill="#E66767" transform="translate(-82, 0)"/>
<path d="M104.529 12.5C103.974 12.5 103.525 12.9492 103.525 13.5041V19.1134H102.521V13.5041C102.521 12.9492 102.072 12.5 101.517 12.5C100.962 12.5 100.513 12.9492 100.513 13.5041V19.1134H99.5084V13.5041C99.5083 12.9492 99.0592 12.5 98.5042 12.5C97.9491 12.5 97.5 12.9492 97.5 13.5041V22.5673C97.5 24.0569 98.7071 25.264 100.197 25.264H100.419L98.8366 39.5061C98.7523 40.268 98.9964 41.03 99.5073 41.6018C100.019 42.1735 100.75 42.5 101.517 42.5C102.284 42.5 103.014 42.1735 103.526 41.6018C104.037 41.03 104.281 40.268 104.197 39.5061L102.614 25.2641H102.837C104.326 25.2641 105.534 24.057 105.534 22.5674V13.5041C105.533 12.9492 105.084 12.5 104.529 12.5Z" fill="#E66767" transform="translate(-82, 0)"/>
</svg>